<svg width="99" height="84" viewBox="0 0 99 84" fill="none" xmlns="http://www.w3.org/2000/svg">
<g id="basestar-bottom">
<path id="Vector 9" d="M3.10443 2.79385C3.84818 3.24545 4.90098 4.01676 6.23627 5.04482C8.88575 7.08472 12.6268 10.1195 17.0585 13.4608C25.6586 19.9449 37.0016 27.6927 48.7001 32.0595L49.8329 32.4716C57.1241 35.0497 69.1839 36.8057 79.3535 38.288C84.4545 39.0315 89.0822 39.7066 92.4355 40.3817C94.115 40.7199 95.4501 41.053 96.3574 41.3876C96.814 41.556 97.1323 41.7147 97.3271 41.8554C97.4222 41.924 97.4661 41.9728 97.4863 41.9999C97.4661 42.027 97.4224 42.0766 97.3271 42.1454C97.1323 42.286 96.8139 42.4438 96.3574 42.6122C95.4501 42.9468 94.115 43.2809 92.4355 43.619C89.0822 44.2942 84.4544 44.9683 79.3535 45.7118C69.5016 47.1478 57.8759 48.8406 50.5302 51.289L49.8329 51.5282C37.7336 55.8066 26.1819 63.8485 17.4306 70.5409C15.2409 72.2155 13.2238 73.8075 11.4169 75.2362C9.60831 76.6663 8.0135 77.9297 6.66107 78.953C5.30404 79.9798 4.21266 80.748 3.40717 81.1972C3.00099 81.4237 2.69916 81.5511 2.49115 81.5995C2.48592 81.6007 2.48049 81.6004 2.47552 81.6015C2.56486 81.4415 2.73069 81.219 2.99701 80.9296C3.60208 80.2721 4.58595 79.3998 5.85541 78.3163C8.37778 76.1634 11.9585 73.2314 15.5986 69.6884C22.8581 62.6223 30.4999 52.994 30.4999 41.9999C30.4999 31.0116 23.1155 21.3859 15.9765 14.3153C12.3966 10.7698 8.8493 7.83835 6.27435 5.68056C4.98088 4.59664 3.94605 3.71958 3.26556 3.05264C3.1244 2.91428 3.00303 2.78795 2.89935 2.67471C2.96314 2.71101 3.03224 2.75001 3.10443 2.79385Z" fill="#CCCCFF" stroke="#CCCCFF"/>
<g id="basestar-top">
<path d="M97.8398 82.6056C97.6571 82.6402 97.4762 82.6088 97.3291 82.5675C97.0313 82.4838 96.6734 82.2997 96.2813 82.0616C95.4843 81.5778 94.3915 80.7744 93.0586 79.7482C90.3709 77.6789 86.6819 74.6829 82.2441 71.337C73.3822 64.6556 61.6825 56.6956 49.7373 52.4718L49.0508 52.2355C41.8165 49.8249 30.3015 48.1435 20.4072 46.7013C15.3171 45.9593 10.6575 45.2805 7.27149 44.5987C5.58158 44.2585 4.1833 43.9125 3.2002 43.5499C2.71205 43.3699 2.29557 43.1751 1.99219 42.9562C1.70594 42.7495 1.40435 42.436 1.4043 42.0001C1.4043 41.5642 1.70592 41.2507 1.99219 41.0441C2.29563 40.8251 2.71189 40.6294 3.2002 40.4493C4.1833 40.0867 5.58158 39.7417 7.27149 39.4015C10.6576 38.7197 15.3171 38.0409 20.4072 37.2989C30.3016 35.8567 41.8165 34.1744 49.0508 31.7638L49.7373 31.5284C61.68 27.3055 73.1282 19.3474 81.8662 12.6652C84.0489 10.996 86.0604 9.40825 87.8672 7.97961C89.6722 6.5524 91.2767 5.28041 92.6397 4.24915C93.9978 3.22157 95.1378 2.41611 96.0098 1.92981C96.4424 1.68857 96.8414 1.50714 97.1865 1.42688C97.4725 1.36039 97.8379 1.33878 98.1348 1.54407L98.2578 1.64661C98.6096 1.99843 98.5132 2.45223 98.3731 2.75305C98.2293 3.06138 97.9655 3.39829 97.6436 3.74817C96.9908 4.45744 95.959 5.36758 94.6973 6.44446C92.1572 8.61242 88.6126 11.515 85.0029 15.0284C77.7625 22.0758 70.4043 31.4481 70.4043 42.0001C70.4043 52.5578 77.5199 61.9319 84.6309 68.9747C88.176 72.4859 91.6912 75.3897 94.2725 77.5529C95.5569 78.6292 96.6239 79.5337 97.3379 80.2335C97.6923 80.5809 97.9829 80.9 98.1699 81.1798C98.2631 81.3193 98.348 81.4737 98.3936 81.6349C98.4397 81.7985 98.4569 82.0131 98.3516 82.2238L98.3066 82.3009C98.1943 82.4702 98.0237 82.5707 97.8398 82.6056Z" fill="#CCCCFF"/>
<path d="M97.8398 82.6056C97.6571 82.6402 97.4762 82.6088 97.3291 82.5675C97.0313 82.4838 96.6734 82.2997 96.2813 82.0616C95.4843 81.5778 94.3915 80.7744 93.0586 79.7482C90.3709 77.6789 86.6819 74.6829 82.2441 71.337C73.3822 64.6556 61.6825 56.6956 49.7373 52.4718L49.0508 52.2355C41.8165 49.8249 30.3015 48.1435 20.4072 46.7013C15.3171 45.9593 10.6575 45.2805 7.27149 44.5987C5.58158 44.2585 4.1833 43.9125 3.2002 43.5499C2.71205 43.3699 2.29557 43.1751 1.99219 42.9562C1.70594 42.7495 1.40435 42.436 1.4043 42.0001C1.4043 41.5642 1.70592 41.2507 1.99219 41.0441C2.29563 40.8251 2.71189 40.6294 3.2002 40.4493C4.1833 40.0867 5.58158 39.7417 7.27149 39.4015C10.6576 38.7197 15.3171 38.0409 20.4072 37.2989C30.3016 35.8567 41.8165 34.1744 49.0508 31.7638L49.7373 31.5284C61.68 27.3055 73.1282 19.3474 81.8662 12.6652C84.0489 10.996 86.0604 9.40825 87.8672 7.97961C89.6722 6.5524 91.2767 5.28041 92.6397 4.24915C93.9978 3.22157 95.1378 2.41611 96.0098 1.92981C96.4424 1.68857 96.8414 1.50714 97.1865 1.42688C97.4725 1.36039 97.8379 1.33878 98.1348 1.54407L98.2578 1.64661C98.6096 1.99843 98.5132 2.45223 98.3731 2.75305C98.2293 3.06138 97.9655 3.39829 97.6436 3.74817C96.9908 4.45744 95.959 5.36758 94.6973 6.44446C92.1572 8.61242 88.6126 11.515 85.0029 15.0284C77.7625 22.0758 70.4043 31.4481 70.4043 42.0001C70.4043 52.5578 77.5199 61.9319 84.6309 68.9747C88.176 72.4859 91.6912 75.3897 94.2725 77.5529C95.5569 78.6292 96.6239 79.5337 97.3379 80.2335C97.6923 80.5809 97.9829 80.9 98.1699 81.1798C98.2631 81.3193 98.348 81.4737 98.3936 81.6349C98.4397 81.7985 98.4569 82.0131 98.3516 82.2238L98.3066 82.3009C98.1943 82.4702 98.0237 82.5707 97.8398 82.6056Z" stroke="#CCCCFF"/>
<path d="M97.8398 82.6056C97.6571 82.6402 97.4762 82.6088 97.3291 82.5675C97.0313 82.4838 96.6734 82.2997 96.2813 82.0616C95.4843 81.5778 94.3915 80.7744 93.0586 79.7482C90.3709 77.6789 86.6819 74.6829 82.2441 71.337C73.3822 64.6556 61.6825 56.6956 49.7373 52.4718L49.0508 52.2355C41.8165 49.8249 30.3015 48.1435 20.4072 46.7013C15.3171 45.9593 10.6575 45.2805 7.27149 44.5987C5.58158 44.2585 4.1833 43.9125 3.2002 43.5499C2.71205 43.3699 2.29557 43.1751 1.99219 42.9562C1.70594 42.7495 1.40435 42.436 1.4043 42.0001C1.4043 41.5642 1.70592 41.2507 1.99219 41.0441C2.29563 40.8251 2.71189 40.6294 3.2002 40.4493C4.1833 40.0867 5.58158 39.7417 7.27149 39.4015C10.6576 38.7197 15.3171 38.0409 20.4072 37.2989C30.3016 35.8567 41.8165 34.1744 49.0508 31.7638L49.7373 31.5284C61.68 27.3055 73.1282 19.3474 81.8662 12.6652C84.0489 10.996 86.0604 9.40825 87.8672 7.97961C89.6722 6.5524 91.2767 5.28041 92.6397 4.24915C93.9978 3.22157 95.1378 2.41611 96.0098 1.92981C96.4424 1.68857 96.8414 1.50714 97.1865 1.42688C97.4725 1.36039 97.8379 1.33878 98.1348 1.54407L98.2578 1.64661C98.6096 1.99843 98.5132 2.45223 98.3731 2.75305C98.2293 3.06138 97.9655 3.39829 97.6436 3.74817C96.9908 4.45744 95.959 5.36758 94.6973 6.44446C92.1572 8.61242 88.6126 11.515 85.0029 15.0284C77.7625 22.0758 70.4043 31.4481 70.4043 42.0001C70.4043 52.5578 77.5199 61.9319 84.6309 68.9747C88.176 72.4859 91.6912 75.3897 94.2725 77.5529C95.5569 78.6292 96.6239 79.5337 97.3379 80.2335C97.6923 80.5809 97.9829 80.9 98.1699 81.1798C98.2631 81.3193 98.348 81.4737 98.3936 81.6349C98.4397 81.7985 98.4569 82.0131 98.3516 82.2238L98.3066 82.3009C98.1943 82.4702 98.0237 82.5707 97.8398 82.6056Z" stroke="#202020"/>
</g>
</g>
</svg>
