<svg width="50" height="50" viewBox="0 0 50 50" fill="none" xmlns="http://www.w3.org/2000/svg">
<path d="M1 31L25 13L49 31" stroke="#CCCCFF" stroke-linecap="round" stroke-linejoin="round"/>
<path d="M7 30V49H43V30" stroke="#CCCCFF" stroke-linecap="round" stroke-linejoin="round"/>
<path d="M9 24.5V14H15V20" stroke="#CCCCFF" stroke-linecap="round" stroke-linejoin="round"/>
<path d="M13 33H18V38H13V33Z" fill="#CCCCFF"/>
<path d="M32 33H37V38H32V33Z" fill="#CCCCFF"/>
<path d="M21 34H29V48H21V34Z" fill="#CCCCFF"/>
<path d="M12 11C12 11 11.7368 9.84212 13 8.57896C14.2632 7.3158 16 6.5 16 4.5C16 2.5 14.5 1 12 1C9.5 1 8 3 8 4.5C8 6 8.5 7 10 7C11.5 7 12 6 12 4.5" stroke="#CCCCFF" stroke-linecap="round" stroke-linejoin="round"/>
</svg>
