<svg width="40" height="39" viewBox="0 0 40 39" fill="none" xmlns="http://www.w3.org/2000/svg">
<path d="M1 23.5L20.5 9.5L39 23.5" stroke="#CCCCFF" stroke-linecap="round" stroke-linejoin="round"/>
<path d="M6 23V38H34V23.5" stroke="#CCCCFF" stroke-linecap="round" stroke-linejoin="round"/>
<path d="M8 18V10H13V14.5" stroke="#CCCCFF" stroke-linecap="round" stroke-linejoin="round"/>
<rect x="10" y="25" width="4" height="4" fill="#CCCCFF"/>
<rect x="26" y="25" width="4" height="4" fill="#CCCCFF"/>
<rect x="17" y="26" width="6" height="11" fill="#CCCCFF"/>
<path d="M10 8C10 8 9.5 7 10.5 6C11.5 5 12.5 4.5 12.5 3C12.5 1.5 11.5 0.5 10 0.5C8.5 0.5 7.5 2 7.5 3C7.5 4 8 5 9 5C10 5 10 4 10 4" stroke="#CCCCFF" stroke-linecap="round" stroke-linejoin="round"/>
</svg>
