<svg width="130" height="16" viewBox="0 0 130 16" fill="none" xmlns="http://www.w3.org/2000/svg">
<path d="M7.15625 10.6953L10.0469 12.9844L9.03125 13.9219L6.1875 11.6641L7.15625 10.6953ZM10.0078 5.95312V6.67188C10.0078 7.52604 9.90104 8.29167 9.6875 8.96875C9.47396 9.64583 9.16667 10.2214 8.76562 10.6953C8.36458 11.1693 7.88281 11.5312 7.32031 11.7812C6.76302 12.0312 6.13802 12.1562 5.44531 12.1562C4.77344 12.1562 4.15625 12.0312 3.59375 11.7812C3.03646 11.5312 2.55208 11.1693 2.14062 10.6953C1.73438 10.2214 1.41927 9.64583 1.19531 8.96875C0.971354 8.29167 0.859375 7.52604 0.859375 6.67188V5.95312C0.859375 5.09896 0.96875 4.33594 1.1875 3.66406C1.41146 2.98698 1.72656 2.41146 2.13281 1.9375C2.53906 1.45833 3.02083 1.09375 3.57812 0.84375C4.14062 0.59375 4.75781 0.46875 5.42969 0.46875C6.1224 0.46875 6.75 0.59375 7.3125 0.84375C7.875 1.09375 8.35677 1.45833 8.75781 1.9375C9.15885 2.41146 9.46615 2.98698 9.67969 3.66406C9.89844 4.33594 10.0078 5.09896 10.0078 5.95312ZM8.51562 6.67188V5.9375C8.51562 5.26042 8.44531 4.66146 8.30469 4.14062C8.16927 3.61979 7.96875 3.18229 7.70312 2.82812C7.4375 2.47396 7.11458 2.20573 6.73438 2.02344C6.35417 1.84115 5.91927 1.75 5.42969 1.75C4.96615 1.75 4.54427 1.84115 4.16406 2.02344C3.78906 2.20573 3.46615 2.47396 3.19531 2.82812C2.92448 3.18229 2.71615 3.61979 2.57031 4.14062C2.42448 4.66146 2.35156 5.26042 2.35156 5.9375V6.67188C2.35156 7.35417 2.42448 7.95833 2.57031 8.48438C2.71615 9.00521 2.92448 9.44531 3.19531 9.80469C3.47135 10.1589 3.79948 10.4271 4.17969 10.6094C4.5599 10.7917 4.98177 10.8828 5.44531 10.8828C5.9349 10.8828 6.36979 10.7917 6.75 10.6094C7.13021 10.4271 7.45052 10.1589 7.71094 9.80469C7.97656 9.44531 8.17708 9.00521 8.3125 8.48438C8.44792 7.95833 8.51562 7.35417 8.51562 6.67188Z" fill="#E6E6E6"/>
<path d="M17.2891 10.0469V3.54688H18.7422V12H17.3594L17.2891 10.0469ZM17.5625 8.26562L18.1641 8.25C18.1641 8.8125 18.1042 9.33333 17.9844 9.8125C17.8698 10.2865 17.6823 10.6979 17.4219 11.0469C17.1615 11.3958 16.8203 11.6693 16.3984 11.8672C15.9766 12.0599 15.4635 12.1562 14.8594 12.1562C14.4479 12.1562 14.0703 12.0964 13.7266 11.9766C13.388 11.8568 13.0964 11.6719 12.8516 11.4219C12.6068 11.1719 12.4167 10.8464 12.2812 10.4453C12.151 10.0443 12.0859 9.5625 12.0859 9V3.54688H13.5312V9.01562C13.5312 9.39583 13.5729 9.71094 13.6562 9.96094C13.7448 10.2057 13.862 10.401 14.0078 10.5469C14.1589 10.6875 14.3255 10.7865 14.5078 10.8438C14.6953 10.901 14.888 10.9297 15.0859 10.9297C15.7005 10.9297 16.1875 10.8125 16.5469 10.5781C16.9062 10.3385 17.1641 10.0182 17.3203 9.61719C17.4818 9.21094 17.5625 8.76042 17.5625 8.26562Z" fill="#E6E6E6"/>
<path d="M24.4531 12.1562C23.8646 12.1562 23.3307 12.0573 22.8516 11.8594C22.3776 11.6562 21.9688 11.3724 21.625 11.0078C21.2865 10.6432 21.026 10.2109 20.8438 9.71094C20.6615 9.21094 20.5703 8.66406 20.5703 8.07031V7.74219C20.5703 7.05469 20.6719 6.44271 20.875 5.90625C21.0781 5.36458 21.3542 4.90625 21.7031 4.53125C22.0521 4.15625 22.4479 3.8724 22.8906 3.67969C23.3333 3.48698 23.7917 3.39062 24.2656 3.39062C24.8698 3.39062 25.3906 3.49479 25.8281 3.70312C26.2708 3.91146 26.6328 4.20312 26.9141 4.57812C27.1953 4.94792 27.4036 5.38542 27.5391 5.89062C27.6745 6.39062 27.7422 6.9375 27.7422 7.53125V8.17969H21.4297V7H26.2969V6.89062C26.276 6.51562 26.1979 6.15104 26.0625 5.79688C25.9323 5.44271 25.724 5.15104 25.4375 4.92188C25.151 4.69271 24.7604 4.57812 24.2656 4.57812C23.9375 4.57812 23.6354 4.64844 23.3594 4.78906C23.0833 4.92448 22.8464 5.1276 22.6484 5.39844C22.4505 5.66927 22.2969 6 22.1875 6.39062C22.0781 6.78125 22.0234 7.23177 22.0234 7.74219V8.07031C22.0234 8.47135 22.0781 8.84896 22.1875 9.20312C22.3021 9.55208 22.4661 9.85938 22.6797 10.125C22.8984 10.3906 23.1615 10.599 23.4688 10.75C23.7812 10.901 24.1354 10.9766 24.5312 10.9766C25.0417 10.9766 25.474 10.8724 25.8281 10.6641C26.1823 10.4557 26.4922 10.1771 26.7578 9.82812L27.6328 10.5234C27.4505 10.7995 27.2188 11.0625 26.9375 11.3125C26.6562 11.5625 26.3099 11.7656 25.8984 11.9219C25.4922 12.0781 25.0104 12.1562 24.4531 12.1562Z" fill="#E6E6E6"/>
<path d="M34.3516 9.75781C34.3516 9.54948 34.3047 9.35677 34.2109 9.17969C34.1224 8.9974 33.9375 8.83333 33.6562 8.6875C33.3802 8.53646 32.9635 8.40625 32.4062 8.29688C31.9375 8.19792 31.513 8.08073 31.1328 7.94531C30.7578 7.8099 30.4375 7.64583 30.1719 7.45312C29.9115 7.26042 29.7109 7.03385 29.5703 6.77344C29.4297 6.51302 29.3594 6.20833 29.3594 5.85938C29.3594 5.52604 29.4323 5.21094 29.5781 4.91406C29.7292 4.61719 29.9401 4.35417 30.2109 4.125C30.487 3.89583 30.8177 3.71615 31.2031 3.58594C31.5885 3.45573 32.0182 3.39062 32.4922 3.39062C33.1693 3.39062 33.7474 3.51042 34.2266 3.75C34.7057 3.98958 35.0729 4.3099 35.3281 4.71094C35.5833 5.10677 35.7109 5.54688 35.7109 6.03125H34.2656C34.2656 5.79688 34.1953 5.57031 34.0547 5.35156C33.9193 5.1276 33.7188 4.94271 33.4531 4.79688C33.1927 4.65104 32.8724 4.57812 32.4922 4.57812C32.0911 4.57812 31.7656 4.64062 31.5156 4.76562C31.2708 4.88542 31.0911 5.03906 30.9766 5.22656C30.8672 5.41406 30.8125 5.61198 30.8125 5.82031C30.8125 5.97656 30.8385 6.11719 30.8906 6.24219C30.9479 6.36198 31.0469 6.47396 31.1875 6.57812C31.3281 6.67708 31.526 6.77083 31.7812 6.85938C32.0365 6.94792 32.362 7.03646 32.7578 7.125C33.4505 7.28125 34.0208 7.46875 34.4688 7.6875C34.9167 7.90625 35.25 8.17448 35.4688 8.49219C35.6875 8.8099 35.7969 9.19531 35.7969 9.64844C35.7969 10.0182 35.7188 10.3568 35.5625 10.6641C35.4115 10.9714 35.1901 11.237 34.8984 11.4609C34.612 11.6797 34.2682 11.8516 33.8672 11.9766C33.4714 12.0964 33.026 12.1562 32.5312 12.1562C31.7865 12.1562 31.1562 12.0234 30.6406 11.7578C30.125 11.4922 29.7344 11.1484 29.4688 10.7266C29.2031 10.3047 29.0703 9.85938 29.0703 9.39062H30.5234C30.5443 9.78646 30.6589 10.1016 30.8672 10.3359C31.0755 10.5651 31.3307 10.7292 31.6328 10.8281C31.9349 10.9219 32.2344 10.9688 32.5312 10.9688C32.9271 10.9688 33.2578 10.9167 33.5234 10.8125C33.7943 10.7083 34 10.5651 34.1406 10.3828C34.2812 10.2005 34.3516 9.99219 34.3516 9.75781Z" fill="#E6E6E6"/>
<path d="M41.2344 3.54688V4.65625H36.6641V3.54688H41.2344ZM38.2109 1.49219H39.6562V9.90625C39.6562 10.1927 39.7005 10.4089 39.7891 10.5547C39.8776 10.7005 39.9922 10.7969 40.1328 10.8438C40.2734 10.8906 40.4245 10.9141 40.5859 10.9141C40.7057 10.9141 40.8307 10.9036 40.9609 10.8828C41.0964 10.8568 41.1979 10.8359 41.2656 10.8203L41.2734 12C41.1589 12.0365 41.0078 12.0703 40.8203 12.1016C40.638 12.138 40.4167 12.1562 40.1562 12.1562C39.8021 12.1562 39.4766 12.0859 39.1797 11.9453C38.8828 11.8047 38.6458 11.5703 38.4688 11.2422C38.2969 10.9089 38.2109 10.4609 38.2109 9.89844V1.49219Z" fill="#E6E6E6"/>
<path d="M50.1953 12H47.8203L47.8359 10.7734H50.1953C51.0078 10.7734 51.6849 10.6042 52.2266 10.2656C52.7682 9.92188 53.1745 9.44271 53.4453 8.82812C53.7214 8.20833 53.8594 7.48438 53.8594 6.65625V5.96094C53.8594 5.3099 53.7812 4.73177 53.625 4.22656C53.4688 3.71615 53.2396 3.28646 52.9375 2.9375C52.6354 2.58333 52.2656 2.3151 51.8281 2.13281C51.3958 1.95052 50.8984 1.85938 50.3359 1.85938H47.7734V0.625H50.3359C51.0807 0.625 51.7604 0.75 52.375 1C52.9896 1.24479 53.5182 1.60156 53.9609 2.07031C54.4089 2.53385 54.7526 3.09635 54.9922 3.75781C55.2318 4.41406 55.3516 5.15365 55.3516 5.97656V6.65625C55.3516 7.47917 55.2318 8.22135 54.9922 8.88281C54.7526 9.53906 54.4062 10.099 53.9531 10.5625C53.5052 11.026 52.9635 11.3828 52.3281 11.6328C51.6979 11.8776 50.987 12 50.1953 12ZM48.625 0.625V12H47.1172V0.625H48.625Z" fill="#E6E6E6"/>
<path d="M58.9688 3.54688V12H57.5156V3.54688H58.9688ZM57.4062 1.30469C57.4062 1.07031 57.4766 0.872396 57.6172 0.710938C57.763 0.549479 57.9766 0.46875 58.2578 0.46875C58.5339 0.46875 58.7448 0.549479 58.8906 0.710938C59.0417 0.872396 59.1172 1.07031 59.1172 1.30469C59.1172 1.52865 59.0417 1.72135 58.8906 1.88281C58.7448 2.03906 58.5339 2.11719 58.2578 2.11719C57.9766 2.11719 57.763 2.03906 57.6172 1.88281C57.4766 1.72135 57.4062 1.52865 57.4062 1.30469Z" fill="#E6E6E6"/>
<path d="M66.2734 10.5547V6.20312C66.2734 5.86979 66.2057 5.58073 66.0703 5.33594C65.9401 5.08594 65.7422 4.89323 65.4766 4.75781C65.2109 4.6224 64.8828 4.55469 64.4922 4.55469C64.1276 4.55469 63.8073 4.61719 63.5312 4.74219C63.2604 4.86719 63.0469 5.03125 62.8906 5.23438C62.7396 5.4375 62.6641 5.65625 62.6641 5.89062H61.2188C61.2188 5.58854 61.2969 5.28906 61.4531 4.99219C61.6094 4.69531 61.8333 4.42708 62.125 4.1875C62.4219 3.94271 62.776 3.75 63.1875 3.60938C63.6042 3.46354 64.0677 3.39062 64.5781 3.39062C65.1927 3.39062 65.7344 3.49479 66.2031 3.70312C66.6771 3.91146 67.0469 4.22656 67.3125 4.64844C67.5833 5.0651 67.7188 5.58854 67.7188 6.21875V10.1562C67.7188 10.4375 67.7422 10.737 67.7891 11.0547C67.8411 11.3724 67.9167 11.6458 68.0156 11.875V12H66.5078C66.4349 11.8333 66.3776 11.612 66.3359 11.3359C66.2943 11.0547 66.2734 10.7943 66.2734 10.5547ZM66.5234 6.875L66.5391 7.89062H65.0781C64.6667 7.89062 64.2995 7.92448 63.9766 7.99219C63.6536 8.05469 63.3828 8.15104 63.1641 8.28125C62.9453 8.41146 62.7786 8.57552 62.6641 8.77344C62.5495 8.96615 62.4922 9.19271 62.4922 9.45312C62.4922 9.71875 62.5521 9.96094 62.6719 10.1797C62.7917 10.3984 62.9714 10.5729 63.2109 10.7031C63.4557 10.8281 63.7552 10.8906 64.1094 10.8906C64.5521 10.8906 64.9427 10.7969 65.2812 10.6094C65.6198 10.4219 65.888 10.1927 66.0859 9.92188C66.2891 9.65104 66.3984 9.38802 66.4141 9.13281L67.0312 9.82812C66.9948 10.0469 66.8958 10.2891 66.7344 10.5547C66.5729 10.8203 66.3568 11.0755 66.0859 11.3203C65.8203 11.5599 65.5026 11.7604 65.1328 11.9219C64.7682 12.0781 64.3568 12.1562 63.8984 12.1562C63.3255 12.1562 62.8229 12.0443 62.3906 11.8203C61.9635 11.5964 61.6302 11.2969 61.3906 10.9219C61.1562 10.5417 61.0391 10.1172 61.0391 9.64844C61.0391 9.19531 61.1276 8.79688 61.3047 8.45312C61.4818 8.10417 61.737 7.8151 62.0703 7.58594C62.4036 7.35156 62.8047 7.17448 63.2734 7.05469C63.7422 6.9349 64.2656 6.875 64.8438 6.875H66.5234Z" fill="#E6E6E6"/>
<path d="M75.4688 3.54688H76.7812V11.8203C76.7812 12.5651 76.6302 13.2005 76.3281 13.7266C76.026 14.2526 75.6042 14.651 75.0625 14.9219C74.526 15.1979 73.9062 15.3359 73.2031 15.3359C72.9115 15.3359 72.5677 15.2891 72.1719 15.1953C71.7812 15.1068 71.3958 14.9531 71.0156 14.7344C70.6406 14.5208 70.3255 14.2318 70.0703 13.8672L70.8281 13.0078C71.1823 13.4349 71.5521 13.7318 71.9375 13.8984C72.3281 14.0651 72.7135 14.1484 73.0938 14.1484C73.5521 14.1484 73.9479 14.0625 74.2812 13.8906C74.6146 13.7188 74.8724 13.4635 75.0547 13.125C75.2422 12.7917 75.3359 12.3802 75.3359 11.8906V5.40625L75.4688 3.54688ZM69.6484 7.86719V7.70312C69.6484 7.05729 69.724 6.47135 69.875 5.94531C70.0312 5.41406 70.2526 4.95833 70.5391 4.57812C70.8307 4.19792 71.1823 3.90625 71.5938 3.70312C72.0052 3.49479 72.4688 3.39062 72.9844 3.39062C73.5156 3.39062 73.9792 3.48438 74.375 3.67188C74.776 3.85417 75.1146 4.1224 75.3906 4.47656C75.6719 4.82552 75.8932 5.2474 76.0547 5.74219C76.2161 6.23698 76.3281 6.79688 76.3906 7.42188V8.14062C76.3333 8.76042 76.2214 9.31771 76.0547 9.8125C75.8932 10.3073 75.6719 10.7292 75.3906 11.0781C75.1146 11.4271 74.776 11.6953 74.375 11.8828C73.974 12.0651 73.5052 12.1562 72.9688 12.1562C72.4635 12.1562 72.0052 12.0495 71.5938 11.8359C71.1875 11.6224 70.8385 11.3229 70.5469 10.9375C70.2552 10.5521 70.0312 10.099 69.875 9.57812C69.724 9.05208 69.6484 8.48177 69.6484 7.86719ZM71.0938 7.70312V7.86719C71.0938 8.28906 71.1354 8.6849 71.2188 9.05469C71.3073 9.42448 71.4401 9.75 71.6172 10.0312C71.7995 10.3125 72.0312 10.5339 72.3125 10.6953C72.5938 10.8516 72.9297 10.9297 73.3203 10.9297C73.7995 10.9297 74.1953 10.8281 74.5078 10.625C74.8203 10.4219 75.0677 10.1536 75.25 9.82031C75.4375 9.48698 75.5833 9.125 75.6875 8.73438V6.85156C75.6302 6.5651 75.5417 6.28906 75.4219 6.02344C75.3073 5.7526 75.1562 5.51302 74.9688 5.30469C74.7865 5.09115 74.5599 4.92188 74.2891 4.79688C74.0182 4.67188 73.7005 4.60938 73.3359 4.60938C72.9401 4.60938 72.599 4.69271 72.3125 4.85938C72.0312 5.02083 71.7995 5.24479 71.6172 5.53125C71.4401 5.8125 71.3073 6.14062 71.2188 6.51562C71.1354 6.88542 71.0938 7.28125 71.0938 7.70312Z" fill="#E6E6E6"/>
<path d="M80.4219 5.35156V12H78.9766V3.54688H80.3438L80.4219 5.35156ZM80.0781 7.45312L79.4766 7.42969C79.4818 6.85156 79.5677 6.31771 79.7344 5.82812C79.901 5.33333 80.1354 4.90365 80.4375 4.53906C80.7396 4.17448 81.099 3.89323 81.5156 3.69531C81.9375 3.49219 82.4036 3.39062 82.9141 3.39062C83.3307 3.39062 83.7057 3.44792 84.0391 3.5625C84.3724 3.67188 84.6562 3.84896 84.8906 4.09375C85.1302 4.33854 85.3125 4.65625 85.4375 5.04688C85.5625 5.43229 85.625 5.90365 85.625 6.46094V12H84.1719V6.44531C84.1719 6.0026 84.1068 5.64844 83.9766 5.38281C83.8464 5.11198 83.6562 4.91667 83.4062 4.79688C83.1562 4.67188 82.849 4.60938 82.4844 4.60938C82.125 4.60938 81.7969 4.6849 81.5 4.83594C81.2083 4.98698 80.9557 5.19531 80.7422 5.46094C80.5339 5.72656 80.3698 6.03125 80.25 6.375C80.1354 6.71354 80.0781 7.07292 80.0781 7.45312Z" fill="#E6E6E6"/>
<path d="M87.4375 7.86719V7.6875C87.4375 7.07812 87.526 6.51302 87.7031 5.99219C87.8802 5.46615 88.1354 5.01042 88.4688 4.625C88.8021 4.23438 89.2057 3.93229 89.6797 3.71875C90.1536 3.5 90.6849 3.39062 91.2734 3.39062C91.8672 3.39062 92.401 3.5 92.875 3.71875C93.3542 3.93229 93.7604 4.23438 94.0938 4.625C94.4323 5.01042 94.6901 5.46615 94.8672 5.99219C95.0443 6.51302 95.1328 7.07812 95.1328 7.6875V7.86719C95.1328 8.47656 95.0443 9.04167 94.8672 9.5625C94.6901 10.0833 94.4323 10.5391 94.0938 10.9297C93.7604 11.3151 93.3568 11.6172 92.8828 11.8359C92.4141 12.0495 91.8828 12.1562 91.2891 12.1562C90.6953 12.1562 90.1615 12.0495 89.6875 11.8359C89.2135 11.6172 88.8073 11.3151 88.4688 10.9297C88.1354 10.5391 87.8802 10.0833 87.7031 9.5625C87.526 9.04167 87.4375 8.47656 87.4375 7.86719ZM88.8828 7.6875V7.86719C88.8828 8.28906 88.9323 8.6875 89.0312 9.0625C89.1302 9.43229 89.2786 9.76042 89.4766 10.0469C89.6797 10.3333 89.9323 10.5599 90.2344 10.7266C90.5365 10.888 90.888 10.9688 91.2891 10.9688C91.6849 10.9688 92.0312 10.888 92.3281 10.7266C92.6302 10.5599 92.8802 10.3333 93.0781 10.0469C93.276 9.76042 93.4245 9.43229 93.5234 9.0625C93.6276 8.6875 93.6797 8.28906 93.6797 7.86719V7.6875C93.6797 7.27083 93.6276 6.8776 93.5234 6.50781C93.4245 6.13281 93.2734 5.80208 93.0703 5.51562C92.8724 5.22396 92.6224 4.99479 92.3203 4.82812C92.0234 4.66146 91.6745 4.57812 91.2734 4.57812C90.8776 4.57812 90.5286 4.66146 90.2266 4.82812C89.9297 4.99479 89.6797 5.22396 89.4766 5.51562C89.2786 5.80208 89.1302 6.13281 89.0312 6.50781C88.9323 6.8776 88.8828 7.27083 88.8828 7.6875Z" fill="#E6E6E6"/>
<path d="M101.867 9.75781C101.867 9.54948 101.82 9.35677 101.727 9.17969C101.638 8.9974 101.453 8.83333 101.172 8.6875C100.896 8.53646 100.479 8.40625 99.9219 8.29688C99.4531 8.19792 99.0286 8.08073 98.6484 7.94531C98.2734 7.8099 97.9531 7.64583 97.6875 7.45312C97.4271 7.26042 97.2266 7.03385 97.0859 6.77344C96.9453 6.51302 96.875 6.20833 96.875 5.85938C96.875 5.52604 96.9479 5.21094 97.0938 4.91406C97.2448 4.61719 97.4557 4.35417 97.7266 4.125C98.0026 3.89583 98.3333 3.71615 98.7188 3.58594C99.1042 3.45573 99.5339 3.39062 100.008 3.39062C100.685 3.39062 101.263 3.51042 101.742 3.75C102.221 3.98958 102.589 4.3099 102.844 4.71094C103.099 5.10677 103.227 5.54688 103.227 6.03125H101.781C101.781 5.79688 101.711 5.57031 101.57 5.35156C101.435 5.1276 101.234 4.94271 100.969 4.79688C100.708 4.65104 100.388 4.57812 100.008 4.57812C99.6068 4.57812 99.2812 4.64062 99.0312 4.76562C98.7865 4.88542 98.6068 5.03906 98.4922 5.22656C98.3828 5.41406 98.3281 5.61198 98.3281 5.82031C98.3281 5.97656 98.3542 6.11719 98.4062 6.24219C98.4635 6.36198 98.5625 6.47396 98.7031 6.57812C98.8438 6.67708 99.0417 6.77083 99.2969 6.85938C99.5521 6.94792 99.8776 7.03646 100.273 7.125C100.966 7.28125 101.536 7.46875 101.984 7.6875C102.432 7.90625 102.766 8.17448 102.984 8.49219C103.203 8.8099 103.312 9.19531 103.312 9.64844C103.312 10.0182 103.234 10.3568 103.078 10.6641C102.927 10.9714 102.706 11.237 102.414 11.4609C102.128 11.6797 101.784 11.8516 101.383 11.9766C100.987 12.0964 100.542 12.1562 100.047 12.1562C99.3021 12.1562 98.6719 12.0234 98.1562 11.7578C97.6406 11.4922 97.25 11.1484 96.9844 10.7266C96.7188 10.3047 96.5859 9.85938 96.5859 9.39062H98.0391C98.0599 9.78646 98.1745 10.1016 98.3828 10.3359C98.5911 10.5651 98.8464 10.7292 99.1484 10.8281C99.4505 10.9219 99.75 10.9688 100.047 10.9688C100.443 10.9688 100.773 10.9167 101.039 10.8125C101.31 10.7083 101.516 10.5651 101.656 10.3828C101.797 10.2005 101.867 9.99219 101.867 9.75781Z" fill="#E6E6E6"/>
<path d="M108.75 3.54688V4.65625H104.18V3.54688H108.75ZM105.727 1.49219H107.172V9.90625C107.172 10.1927 107.216 10.4089 107.305 10.5547C107.393 10.7005 107.508 10.7969 107.648 10.8438C107.789 10.8906 107.94 10.9141 108.102 10.9141C108.221 10.9141 108.346 10.9036 108.477 10.8828C108.612 10.8568 108.714 10.8359 108.781 10.8203L108.789 12C108.674 12.0365 108.523 12.0703 108.336 12.1016C108.154 12.138 107.932 12.1562 107.672 12.1562C107.318 12.1562 106.992 12.0859 106.695 11.9453C106.398 11.8047 106.161 11.5703 105.984 11.2422C105.812 10.9089 105.727 10.4609 105.727 9.89844V1.49219Z" fill="#E6E6E6"/>
<path d="M112.016 3.54688V12H110.562V3.54688H112.016ZM110.453 1.30469C110.453 1.07031 110.523 0.872396 110.664 0.710938C110.81 0.549479 111.023 0.46875 111.305 0.46875C111.581 0.46875 111.792 0.549479 111.938 0.710938C112.089 0.872396 112.164 1.07031 112.164 1.30469C112.164 1.52865 112.089 1.72135 111.938 1.88281C111.792 2.03906 111.581 2.11719 111.305 2.11719C111.023 2.11719 110.81 2.03906 110.664 1.88281C110.523 1.72135 110.453 1.52865 110.453 1.30469Z" fill="#E6E6E6"/>
<path d="M117.719 10.9688C118.062 10.9688 118.38 10.8984 118.672 10.7578C118.964 10.6172 119.203 10.4245 119.391 10.1797C119.578 9.92969 119.685 9.64583 119.711 9.32812H121.086C121.06 9.82812 120.891 10.2943 120.578 10.7266C120.271 11.1536 119.867 11.5 119.367 11.7656C118.867 12.026 118.318 12.1562 117.719 12.1562C117.083 12.1562 116.529 12.0443 116.055 11.8203C115.586 11.5964 115.195 11.2891 114.883 10.8984C114.576 10.5078 114.344 10.0599 114.188 9.55469C114.036 9.04427 113.961 8.50521 113.961 7.9375V7.60938C113.961 7.04167 114.036 6.50521 114.188 6C114.344 5.48958 114.576 5.03906 114.883 4.64844C115.195 4.25781 115.586 3.95052 116.055 3.72656C116.529 3.5026 117.083 3.39062 117.719 3.39062C118.38 3.39062 118.958 3.52604 119.453 3.79688C119.948 4.0625 120.336 4.42708 120.617 4.89062C120.904 5.34896 121.06 5.86979 121.086 6.45312H119.711C119.685 6.10417 119.586 5.78906 119.414 5.50781C119.247 5.22656 119.018 5.0026 118.727 4.83594C118.44 4.66406 118.104 4.57812 117.719 4.57812C117.276 4.57812 116.904 4.66667 116.602 4.84375C116.305 5.01562 116.068 5.25 115.891 5.54688C115.719 5.83854 115.594 6.16406 115.516 6.52344C115.443 6.8776 115.406 7.23958 115.406 7.60938V7.9375C115.406 8.30729 115.443 8.67188 115.516 9.03125C115.589 9.39062 115.711 9.71615 115.883 10.0078C116.06 10.2995 116.297 10.5339 116.594 10.7109C116.896 10.8828 117.271 10.9688 117.719 10.9688Z" fill="#E6E6E6"/>
<path d="M127.633 9.75781C127.633 9.54948 127.586 9.35677 127.492 9.17969C127.404 8.9974 127.219 8.83333 126.938 8.6875C126.661 8.53646 126.245 8.40625 125.688 8.29688C125.219 8.19792 124.794 8.08073 124.414 7.94531C124.039 7.8099 123.719 7.64583 123.453 7.45312C123.193 7.26042 122.992 7.03385 122.852 6.77344C122.711 6.51302 122.641 6.20833 122.641 5.85938C122.641 5.52604 122.714 5.21094 122.859 4.91406C123.01 4.61719 123.221 4.35417 123.492 4.125C123.768 3.89583 124.099 3.71615 124.484 3.58594C124.87 3.45573 125.299 3.39062 125.773 3.39062C126.451 3.39062 127.029 3.51042 127.508 3.75C127.987 3.98958 128.354 4.3099 128.609 4.71094C128.865 5.10677 128.992 5.54688 128.992 6.03125H127.547C127.547 5.79688 127.477 5.57031 127.336 5.35156C127.201 5.1276 127 4.94271 126.734 4.79688C126.474 4.65104 126.154 4.57812 125.773 4.57812C125.372 4.57812 125.047 4.64062 124.797 4.76562C124.552 4.88542 124.372 5.03906 124.258 5.22656C124.148 5.41406 124.094 5.61198 124.094 5.82031C124.094 5.97656 124.12 6.11719 124.172 6.24219C124.229 6.36198 124.328 6.47396 124.469 6.57812C124.609 6.67708 124.807 6.77083 125.062 6.85938C125.318 6.94792 125.643 7.03646 126.039 7.125C126.732 7.28125 127.302 7.46875 127.75 7.6875C128.198 7.90625 128.531 8.17448 128.75 8.49219C128.969 8.8099 129.078 9.19531 129.078 9.64844C129.078 10.0182 129 10.3568 128.844 10.6641C128.693 10.9714 128.471 11.237 128.18 11.4609C127.893 11.6797 127.549 11.8516 127.148 11.9766C126.753 12.0964 126.307 12.1562 125.812 12.1562C125.068 12.1562 124.438 12.0234 123.922 11.7578C123.406 11.4922 123.016 11.1484 122.75 10.7266C122.484 10.3047 122.352 9.85938 122.352 9.39062H123.805C123.826 9.78646 123.94 10.1016 124.148 10.3359C124.357 10.5651 124.612 10.7292 124.914 10.8281C125.216 10.9219 125.516 10.9688 125.812 10.9688C126.208 10.9688 126.539 10.9167 126.805 10.8125C127.076 10.7083 127.281 10.5651 127.422 10.3828C127.562 10.2005 127.633 9.99219 127.633 9.75781Z" fill="#E6E6E6"/>
</svg>
