<svg width="39" height="20" viewBox="0 0 39 20" fill="none" xmlns="http://www.w3.org/2000/svg">
<circle cx="29" cy="10" r="9.5" fill="#CCCCFF" stroke="#CCCCFF"/>
<rect x="9.5" y="8.5" width="11" height="3" rx="1.5" fill="#CCCCFF" stroke="#CCCCFF"/>
<path d="M0.5 2.5H17C17.2761 2.5 17.5 2.72386 17.5 3C17.5 3.27614 17.2761 3.5 17 3.5H0.5V2.5Z" stroke="#CCCCFF"/>
<path d="M0.5 16.5H17C17.2761 16.5 17.5 16.7239 17.5 17C17.5 17.2761 17.2761 17.5 17 17.5H0.5V16.5Z" stroke="#CCCCFF"/>
<rect x="10.7044" y="3.06163" width="1" height="9" rx="0.5" transform="rotate(-40 10.7044 3.06163)" stroke="#CCCCFF"/>
<rect x="16.6616" y="9.90441" width="1" height="9" rx="0.5" transform="rotate(40 16.6616 9.90441)" stroke="#CCCCFF"/>
<circle cx="29" cy="10" r="2" fill="#CCCCFF"/>
</svg>
