<svg viewBox="0 0 16 9" fill="none" xmlns="http://www.w3.org/2000/svg">
<circle cx="1" cy="5" r=".025" fill="#FAFAFA"/>
<circle cx="2" cy="2" r=".015" fill="#FAFAFA"/>
<circle cx="3" cy="4" r=".025" fill="#FAFAFA"/>
<circle cx="4" cy="6" r=".025" fill="#FAFAFA"/>
<circle cx="5" cy="8" r=".015" fill="#FAFAFA"/>
<circle cx="6" cy="9" r=".025" fill="#FAFAFA"/>
<circle cx="7" cy="5" r=".02" fill="#FAFAFA"/>
<circle cx="8" cy="3" r=".025" fill="#FAFAFA"/>
<circle cx="9" cy="7" r=".015" fill="#FAFAFA"/>
<circle cx="10" cy="2" r=".015" fill="#FAFAFA"/>
<circle cx="11" cy="1" r=".025" fill="#FAFAFA"/>
<circle cx="12" cy="8" r=".025" fill="#FAFAFA"/>
<circle cx="13" cy="8.5" r=".015" fill="#FAFAFA"/>
<circle cx="14" cy="1" r=".025" fill="#FAFAFA"/>
<circle cx="15" cy="9" r=".02" fill="#FAFAFA"/>
<circle cx="16" cy="2" r=".025" fill="#FAFAFA"/>
<circle cx="1.25" cy="9" r=".015" fill="#FAFAFA"/>
<circle cx="2.25" cy="7" r=".025" fill="#FAFAFA"/>
<circle cx="3.25" cy="5" r=".015" fill="#FAFAFA"/>
<circle cx="4.25" cy="4" r=".02" fill="#FAFAFA"/>
<circle cx="6.25" cy="3" r=".025" fill="#FAFAFA"/>
<circle cx="7.25" cy="2" r=".02" fill="#FAFAFA"/>
<circle cx="8.25" cy="1" r=".025" fill="#FAFAFA"/>
<circle cx="9.25" cy="1.5" r=".015" fill="#FAFAFA"/>
<circle cx="10.5" cy="7" r=".02" fill="#FAFAFA"/>
<circle cx="11.5" cy="6" r=".025" fill="#FAFAFA"/>
<circle cx="12.5" cy="4.5" r=".025" fill="#FAFAFA"/>
<circle cx="13.5" cy="3.25" r=".02" fill="#FAFAFA"/>
<circle cx="14.5" cy="7.5" r=".025" fill="#FAFAFA"/>
<circle cx="15.5" cy="2.5" r=".02" fill="#FAFAFA"/>
<circle cx="1.75" cy="1.25" r=".015" fill="#FAFAFA"/>
<circle cx="2.75" cy="1.75" r=".025" fill="#FAFAFA"/>
<circle cx="3.75" cy="7.75" r=".02" fill="#FAFAFA"/>
<circle cx="4.75" cy="5.75" r=".02" fill="#FAFAFA"/>
<circle cx="6.75" cy="2.75" r=".015" fill="#FAFAFA"/>
<circle cx="7.75" cy="9,75" r=".02" fill="#FAFAFA"/>
<circle cx="8.75" cy="1.75" r=".025" fill="#FAFAFA"/>
<circle cx="14.75" cy="4.75" r=".025" fill="#FAFAFA"/>
<circle cx=".75" cy="2.75" r=".025" fill="#FAFAFA"/>
<circle cx="9.75" cy="4.75" r=".015" fill="#FAFAFA"/>
<circle cx=".75" cy="8.75" r=".015" fill="#FAFAFA"/>
<circle cx=".4" cy="7.75" r=".015" fill="#FAFAFA"/>
<circle cx="7" cy="6.5" r=".015" fill="#FAFAFA"/>
<circle cx="4.75" cy="1.25" r=".02" fill="#FAFAFA"/>
</svg>