<svg viewBox="0 0 100 100" fill="none" xmlns="http://www.w3.org/2000/svg">
<!-- <circle id="mid-landing" cx="80" cy="0" r="0.08" fill="red"/>
<circle id="mid-about" cx="80" cy=".5" r="0.08" fill="red"/>
<circle id="mid-projects" cx="80" cy="1" r="0.08" fill="red"/> -->
<circle cx="5" cy="10" r="0.07" fill="#FAFAFA"/>
<circle cx="15" cy="3" r="0.07" fill="#FAFAFA"/>
<circle cx="32" cy="1" r="0.07" fill="#FAFAFA"/>
<circle cx="50" cy="5" r="0.07" fill="#FAFAFA"/>
<circle cx="70" cy="10" r="0.07" fill="#FAFAFA"/>
<circle cx="80" cy="20" r="0.07" fill="#FAFAFA"/>
<circle cx="95" cy="8" r="0.07" fill="#FAFAFA"/>
<circle cx="10" cy="25" r="0.07" fill="#FAFAFA"/>
<circle cx="25" cy="30" r="0.07" fill="#FAFAFA"/>
<circle cx="30" cy="22" r="0.07" fill="#FAFAFA"/>
<circle cx="55" cy="30" r="0.07" fill="#FAFAFA"/>
<circle cx="75" cy="35" r="0.07" fill="#FAFAFA"/>
<circle cx="12" cy="45" r="0.07" fill="#FAFAFA"/>
<circle cx="35" cy="48" r="0.07" fill="#FAFAFA"/>
<circle cx="85" cy="40" r="0.07" fill="#FAFAFA"/>
<circle cx="65" cy="50" r="0.07" fill="#FAFAFA"/>
<circle cx="20" cy="56" r="0.07" fill="#FAFAFA"/>
<circle cx="92" cy="58" r="0.07" fill="#FAFAFA"/>
<circle cx="9" cy="64" r="0.07" fill="#FAFAFA"/>
<circle cx="30" cy="71" r="0.07" fill="#FAFAFA"/>
<circle cx="48" cy="74" r="0.07" fill="#FAFAFA"/>
<circle cx="61" cy="69" r="0.07" fill="#FAFAFA"/>
<circle cx="2" cy="88" r="0.07" fill="#FAFAFA"/>
<circle cx="11" cy="81" r="0.07" fill="#FAFAFA"/>
<circle cx="32" cy="90" r="0.07" fill="#FAFAFA"/>
<circle cx="64" cy="99" r="0.07" fill="#FAFAFA"/>
<circle cx="76" cy="100" r="0.07" fill="#FAFAFA"/>
<circle cx="88" cy="92" r="0.07" fill="#FAFAFA"/>
<circle cx="36" cy="98" r="0.07" fill="#FAFAFA"/>
<circle cx="51" cy="80" r="0.07" fill="#FAFAFA"/>
</svg>