<svg viewBox="0 0 100 100" fill="none" xmlns="http://www.w3.org/2000/svg">
<circle cx="3" cy="2" r="0.11" fill="#FAFAFA"/>
<circle cx="12" cy="12" r="3.11" fill="#FAFAFA"/>
<circle cx="27" cy="8" r="0.11" fill="#FAFAFA"/>
<circle cx="41" cy="10" r="0.11" fill="#FAFAFA"/>
<circle cx="60" cy="1" r="0.11" fill="#FAFAFA"/>
<circle cx="89" cy="1" r="0.11" fill="#FAFAFA"/>
<circle cx="6" cy="30" r="0.11" fill="#FAFAFA"/>
<circle cx="16" cy="24" r="0.11" fill="#FAFAFA"/>
<circle cx="50" cy="20" r="0.11" fill="#FAFAFA"/>
<circle cx="76" cy="16" r="0.11" fill="#FAFAFA"/>
<circle cx="92" cy="24" r="0.11" fill="#FAFAFA"/>
<circle cx="14" cy="36" r="0.11" fill="#FAFAFA"/>
<circle cx="28" cy="39" r="0.11" fill="#FAFAFA"/>
<circle cx="44" cy="32" r="0.11" fill="#FAFAFA"/>
<circle cx="68" cy="45" r="0.11" fill="#FAFAFA"/>
<circle cx="8" cy="56" r="0.11" fill="#FAFAFA"/>
<circle cx="53" cy="41" r="0.11" fill="#FAFAFA"/>
<circle cx="96" cy="54" r="0.11" fill="#FAFAFA"/>
<circle cx="32" cy="51" r="0.11" fill="#FAFAFA"/>
<circle cx="56" cy="57" r="0.11" fill="#FAFAFA"/>
</svg>