<svg viewBox="0 0 100 100" fill="none" xmlns="http://www.w3.org/2000/svg">
<circle cx="1" cy="1" r="0.05" fill="#FAFAFA"/>
<circle cx="2" cy="20" r="0.05" fill="#FAFAFA"/>
<circle cx="3" cy="40" r="0.05" fill="#FAFAFA"/>
<circle cx="3" cy="92" r="0.05" fill="#FAFAFA"/>
<circle cx="4" cy="15" r="0.05" fill="#FAFAFA"/>
<circle cx="30" cy="100" r="0.05" fill="#FAFAFA"/>
<circle cx="5" cy="98" r="0.05" fill="#FAFAFA"/>
<circle cx="6" cy="85" r="0.05" fill="#FAFAFA"/>
<circle cx="7" cy="80" r="0.05" fill="#FAFAFA"/>
<circle cx="8" cy="5" r="0.05" fill="#FAFAFA"/>
<circle cx="12" cy="30" r="0.05" fill="#FAFAFA"/>
<circle cx="15" cy="60" r="0.05" fill="#FAFAFA"/>
<circle cx="20" cy="50" r="0.05" fill="#FAFAFA"/>
<circle cx="22" cy="8" r="0.05" fill="#FAFAFA"/>
<circle cx="25" cy="90" r="0.05" fill="#FAFAFA"/>
<circle cx="30" cy="12" r="0.05" fill="#FAFAFA"/>
<circle cx="35" cy="33" r="0.05" fill="#FAFAFA"/>
<circle cx="40" cy="20" r="0.05" fill="#FAFAFA"/>
<circle cx="41" cy="30" r="0.05" fill="#FAFAFA"/>
<circle cx="48" cy="60" r="0.05" fill="#FAFAFA"/>
<circle cx="50" cy="13" r="0.05" fill="#FAFAFA"/>
<circle cx="58" cy="21" r="0.05" fill="#FAFAFA"/>
<circle cx="60" cy="44" r="0.05" fill="#FAFAFA"/>
<circle cx="64" cy="93" r="0.05" fill="#FAFAFA"/>
<circle cx="70" cy="23" r="0.05" fill="#FAFAFA"/>
<circle cx="72" cy="79" r="0.05" fill="#FAFAFA"/>
<circle cx="75" cy="24" r="0.05" fill="#FAFAFA"/>
<circle cx="80" cy="45" r="0.05" fill="#FAFAFA"/>
<circle cx="81" cy="33" r="0.05" fill="#FAFAFA"/>
<circle cx="82" cy="36" r="0.05" fill="#FAFAFA"/>
<circle cx="83" cy="58" r="0.05" fill="#FAFAFA"/>
<circle cx="85" cy="22" r="0.05" fill="#FAFAFA"/>
<circle cx="88" cy="34" r="0.05" fill="#FAFAFA"/>
<circle cx="90" cy="4" r="0.05" fill="#FAFAFA"/>
<circle cx="92" cy="14" r="0.05" fill="#FAFAFA"/>
<circle cx="94" cy="1" r="0.05" fill="#FAFAFA"/>
<circle cx="95" cy="73" r="0.05" fill="#FAFAFA"/>
<circle cx="98" cy="40" r="0.05" fill="#FAFAFA"/>
<circle cx="99" cy="45" r="0.05" fill="#FAFAFA"/>
<circle cx="25" cy="49" r="0.05" fill="#FAFAFA"/>
<circle cx="20" cy="40" r="0.05" fill="#FAFAFA"/>
<circle cx="48" cy="46" r="0.05" fill="#FAFAFA"/>
<circle cx="40" cy="44" r="0.05" fill="#FAFAFA"/>
<circle cx="75" cy="48" r="0.05" fill="#FAFAFA"/>
<circle cx="70" cy="35" r="0.05" fill="#FAFAFA"/>
</svg>