<svg width="36" height="36" viewBox="0 0 36 36" fill="none" xmlns="http://www.w3.org/2000/svg">
<path d="M3 16H18.0857L36 17V19L18.0857 20H3V16Z" fill="#CCCCFF"/>
<path d="M7 0H12V36H7L4 23.2941V12.7059L7 0Z" fill="#CCCCFF"/>
<rect y="13" width="3" height="2" fill="#CCCCFF"/>
<rect y="21" width="3" height="2" fill="#CCCCFF"/>
<rect x="13" y="17" width="4" height="2" fill="#4688EC"/>
<line x1="13" y1="0.5" x2="23" y2="0.5" stroke="#CCCCFF"/>
<line x1="13" y1="35.5" x2="23" y2="35.5" stroke="#CCCCFF"/>
<path d="M2 2.38419e-07H5.27273L6.5 6L6.5 12H4.18182L2 2.38419e-07Z" fill="#CCCCFF"/>
<path d="M2 36H5.27273L6.5 30L6.5 24H4.18182L2 36Z" fill="#CCCCFF"/>
</svg>
